<svg xmlns="http://www.w3.org/2000/svg" viewBox="0 0 113.28 24.17"><defs><style>.cls-1{fill:#0075c9;}</style></defs><title>sanlam-logo-blue</title><g id="Layer_2" data-name="Layer 2"><g id="Layer_1-2" data-name="Layer 1"><g id="backed_by_sanlam" data-name="backed by sanlam"><path class="cls-1" d="M52.08,15.48a5,5,0,0,1-.78.21,8.13,8.13,0,0,1-.84.13l-1,.16a8,8,0,0,0-.84.22,2.49,2.49,0,0,0-.73.36,1.65,1.65,0,0,0-.5.58,2,2,0,0,0,0,1.69,1.58,1.58,0,0,0,.51.55,2.12,2.12,0,0,0,.76.28,4,4,0,0,0,.84.08,3.32,3.32,0,0,0,1.75-.37,2.46,2.46,0,0,0,1-.86,2.74,2.74,0,0,0,.37-1.06,6,6,0,0,0,.06-.85V15.14a1.7,1.7,0,0,1-.6.34m-7.51-5.39a4.46,4.46,0,0,1,1.5-1.43,6.32,6.32,0,0,1,2.06-.76,11.88,11.88,0,0,1,2.3-.23,16.65,16.65,0,0,1,2.12.14,6.71,6.71,0,0,1,2,.58A4,4,0,0,1,56,9.59a3.33,3.33,0,0,1,.56,2v7.23a15.39,15.39,0,0,0,.11,1.8A3.25,3.25,0,0,0,57,21.94H53.14a4.77,4.77,0,0,1-.17-.65,5.46,5.46,0,0,1-.1-.69,5,5,0,0,1-2.15,1.32,8.65,8.65,0,0,1-2.52.38,6.84,6.84,0,0,1-1.86-.25,4.28,4.28,0,0,1-1.51-.75,3.34,3.34,0,0,1-1-1.29,4.39,4.39,0,0,1-.37-1.86,4.07,4.07,0,0,1,.42-1.94A3.42,3.42,0,0,1,45,15a4.9,4.9,0,0,1,1.49-.68,13.59,13.59,0,0,1,1.68-.37c.57-.09,1.14-.16,1.68-.21a10.69,10.69,0,0,0,1.5-.26,2.55,2.55,0,0,0,1-.47,1,1,0,0,0,.35-.9,2.06,2.06,0,0,0-.21-1,1.46,1.46,0,0,0-.53-.57,2.2,2.2,0,0,0-.78-.27,7.75,7.75,0,0,0-1-.07,3,3,0,0,0-1.77.48,2.24,2.24,0,0,0-.76,1.62h-3.8a4.34,4.34,0,0,1,.7-2.21"/><path class="cls-1" d="M86.1,15.48a5.16,5.16,0,0,1-.77.21c-.28.06-.57.1-.84.13l-.92.14a5.73,5.73,0,0,0-.84.21,2.57,2.57,0,0,0-.74.37,1.73,1.73,0,0,0-.49.58,1.88,1.88,0,0,0-.19.84,1.75,1.75,0,0,0,.19.84,1.45,1.45,0,0,0,.51.56,2.27,2.27,0,0,0,.75.28,5.26,5.26,0,0,0,.89.08,3.42,3.42,0,0,0,1.75-.38,2.59,2.59,0,0,0,.88-.83,2.9,2.9,0,0,0,.36-1.06,7.9,7.9,0,0,0,.07-.85V15.14a1.74,1.74,0,0,1-.61.34m-7.57-5.39A4.56,4.56,0,0,1,80,8.66,6.37,6.37,0,0,1,82.1,7.9a11.7,11.7,0,0,1,2.29-.23,16.93,16.93,0,0,1,2.13.14,6.71,6.71,0,0,1,2,.58,4,4,0,0,1,1.45,1.2,3.4,3.4,0,0,1,.57,2v7.23a15.39,15.39,0,0,0,.1,1.8A3.44,3.44,0,0,0,91,21.94H87.11a6.16,6.16,0,0,1-.18-.65,4.08,4.08,0,0,1-.09-.69,5.07,5.07,0,0,1-2.15,1.32,8.67,8.67,0,0,1-2.53.38,6.89,6.89,0,0,1-1.86-.25,4.28,4.28,0,0,1-1.51-.75,3.44,3.44,0,0,1-1-1.29,4.39,4.39,0,0,1-.37-1.86,4.07,4.07,0,0,1,.42-1.94A3.46,3.46,0,0,1,78.92,15a4.68,4.68,0,0,1,1.51-.68,13.59,13.59,0,0,1,1.68-.37c.57-.09,1.15-.16,1.69-.21a10.5,10.5,0,0,0,1.47-.25,2.66,2.66,0,0,0,1-.46,1.05,1.05,0,0,0,.34-.9,2,2,0,0,0-.2-1,1.39,1.39,0,0,0-.54-.56,2,2,0,0,0-.77-.27,6.2,6.2,0,0,0-1-.07,3,3,0,0,0-1.77.48,2.21,2.21,0,0,0-.76,1.62H77.83a4.49,4.49,0,0,1,.66-2.23"/><path class="cls-1" d="M95.59,8.05V9.94h0a5.55,5.55,0,0,1,1.82-1.69,4.93,4.93,0,0,1,2.43-.59,5.55,5.55,0,0,1,2.41.51A3.38,3.38,0,0,1,104,10a6,6,0,0,1,1.68-1.61,4.42,4.42,0,0,1,2.53-.7,7.37,7.37,0,0,1,2,.26,4.14,4.14,0,0,1,1.62.85,3.86,3.86,0,0,1,1,1.54,6.16,6.16,0,0,1,.38,2.29V22H109.4V14.08a9.29,9.29,0,0,0-.06-1.32,2.67,2.67,0,0,0-.29-1.08,1.81,1.81,0,0,0-.72-.73,2.64,2.64,0,0,0-1.27-.27,2.44,2.44,0,0,0-1.3.32,2.06,2.06,0,0,0-.79.84,3.43,3.43,0,0,0-.38,1.13,9.07,9.07,0,0,0-.09,1.28V22h-3.81v-9a3.62,3.62,0,0,0-.24-1.12,1.71,1.71,0,0,0-.66-.84,2.6,2.6,0,0,0-1.39-.31,2.48,2.48,0,0,0-.72.13,2.21,2.21,0,0,0-.84.45,2.71,2.71,0,0,0-.71,1,3.87,3.87,0,0,0-.29,1.68V22H92V8.05Z"/><path class="cls-1" d="M11.5,16.44a13.55,13.55,0,0,0,2.62-2.62,5,5,0,0,0,1-2.89,4.2,4.2,0,0,0-.84-2.53c-.66-1.05-1.35-2.09-1.92-3h0L11.5,3.92C10.9,2.82,10,1.51,11.11,0c0,0,.29.51,8.75,11.88h0a1.12,1.12,0,0,1,.19.64h0a1.41,1.41,0,0,1-.25.84h0l-3,5.19a6.22,6.22,0,0,0-.4,2.42v1.75h0c0,.91-.78,1.44-1.75,1.45h-4V19.74a14.28,14.28,0,0,1,.09-2.07,2.24,2.24,0,0,1,.74-1.22"/><path class="cls-1" d="M14.1,10.84a4.06,4.06,0,1,0-4.1,4h.05a4,4,0,0,0,4-4"/><path class="cls-1" d="M8.6,16.44A13.55,13.55,0,0,1,6,13.82a5.19,5.19,0,0,1-1-2.89,4.25,4.25,0,0,1,.8-2.53c.66-1.05,1.35-2.09,1.92-3h0l.84-1.46c.6-1.1,1.5-2.41.4-3.92C9,0,8.65.51.19,11.88h0a1.12,1.12,0,0,0-.19.64H0a1.41,1.41,0,0,0,.25.84h0l3.19,5.17A6.68,6.68,0,0,1,3.83,21v1.77c0,.91.78,1.44,1.76,1.45H9.5V19.74a13,13,0,0,0-.16-2.07,2.13,2.13,0,0,0-.74-1.22"/><path class="cls-1" d="M31.31,16.54a2.85,2.85,0,0,0,1.25,2.29,5,5,0,0,0,2.58.65,9.37,9.37,0,0,0,1.18-.09,5.47,5.47,0,0,0,1.27-.3,2.32,2.32,0,0,0,1-.68,1.6,1.6,0,0,0,.34-1.16,1.69,1.69,0,0,0-.52-1.17,3.89,3.89,0,0,0-1.26-.73,11.57,11.57,0,0,0-1.75-.47l-2-.43a17.07,17.07,0,0,1-2-.56,6.21,6.21,0,0,1-1.69-.84,4.07,4.07,0,0,1-1.22-1.42A4.42,4.42,0,0,1,28,9.49a3.85,3.85,0,0,1,.67-2.3,5.14,5.14,0,0,1,1.68-1.5,7.52,7.52,0,0,1,2.29-.8A13.74,13.74,0,0,1,35,4.66a11.25,11.25,0,0,1,2.52.28,7,7,0,0,1,2.16.9,5.23,5.23,0,0,1,1.6,1.61A5.64,5.64,0,0,1,42,9.82H38.17A2.32,2.32,0,0,0,37,8a5.1,5.1,0,0,0-2.25-.46,7,7,0,0,0-.92.06,4.45,4.45,0,0,0-1,.24,2.26,2.26,0,0,0-.84.53,1.29,1.29,0,0,0-.33.9,1.43,1.43,0,0,0,.48,1.11,3.9,3.9,0,0,0,1.24.7,11.9,11.9,0,0,0,1.75.47l2,.43c.68.15,1.34.34,2,.55a6.42,6.42,0,0,1,1.75.84,4.41,4.41,0,0,1,1.25,1.4,4.35,4.35,0,0,1,.47,2.09,4.61,4.61,0,0,1-.68,2.53,5.43,5.43,0,0,1-1.79,1.68A8.28,8.28,0,0,1,37.7,22a11.86,11.86,0,0,1-2.66.3A11.3,11.3,0,0,1,32.09,22a6.71,6.71,0,0,1-2.36-1.1,5.16,5.16,0,0,1-1.56-1.82,5.62,5.62,0,0,1-.61-2.6Z"/><path class="cls-1" d="M61.65,8.05V10h.08a4.32,4.32,0,0,1,1.88-1.76A5.42,5.42,0,0,1,66,7.68a6.62,6.62,0,0,1,2.53.41A3.72,3.72,0,0,1,70,9.25a4.49,4.49,0,0,1,.79,1.8,11.57,11.57,0,0,1,.24,2.35V22H67.24V14.1a4.75,4.75,0,0,0-.54-2.56,2.08,2.08,0,0,0-1.91-.85,2.64,2.64,0,0,0-2.25.93,5.12,5.12,0,0,0-.7,3.06V22H58V8.05Z"/><rect class="cls-1" x="72.52" y="2.75" width="3.82" height="19.2"/></g></g></g></svg>