<?xml version="1.0" encoding="UTF-8"?>
<svg width="56px" height="56px" viewBox="0 0 56 56" version="1.1" xmlns="http://www.w3.org/2000/svg" xmlns:xlink="http://www.w3.org/1999/xlink">
    <!-- Generator: Sketch 53.2 (72643) - https://sketchapp.com -->
    <title>Funeral@2x</title>
    <desc>Created with Sketch.</desc>
    <defs>
        <linearGradient x1="0%" y1="3.31002592%" x2="93.8395853%" y2="89.5061728%" id="linearGradient-1">
            <stop stop-color="#8BC1E6" offset="0%"></stop>
            <stop stop-color="#0175C9" offset="100%"></stop>
        </linearGradient>
        <linearGradient x1="79.9286646%" y1="84.7960414%" x2="18.5015869%" y2="15.1571383%" id="linearGradient-2">
            <stop stop-color="#8BC1E6" offset="0%"></stop>
            <stop stop-color="#0175C9" offset="100%"></stop>
        </linearGradient>
    </defs>
    <g id="Funeral" stroke="none" stroke-width="1" fill="none" fill-rule="evenodd">
        <path d="M33.9935558,37.128 C33.7146597,37.607 33.022584,38 32.4544622,38 L23.5463125,38 C22.9781907,38 22.2850821,37.607 22.0072189,37.128 L17.2091721,28.871 C16.930276,28.392 16.930276,27.607 17.2091721,27.128 L22.0072189,18.871 C22.2850821,18.392 22.9781907,18 23.5463125,18 L32.4544622,18 C33.022584,18 33.7146597,18.392 33.9935558,18.871 L38.7916026,27.128 C39.0694658,27.607 39.0694658,28.392 38.7916026,28.871 L33.9935558,37.128 Z M15.3656673,4 C14.80974,4 14.1315086,4.392 13.8596096,4.871 L1.20468233,27.128 C0.931772556,27.607 0.931772556,28.392 1.20468233,28.871 L13.8596096,51.128 C14.1315086,51.607 14.80974,52 15.3656673,52 L40.6350908,52 C41.1910181,52 41.8682387,51.607 42.1411484,51.128 L54.7960758,28.871 C55.0679747,28.392 55.0679747,27.607 54.7960758,27.128 L42.1411484,4.871 C41.8682387,4.392 41.1910181,4 40.6350908,4 L15.3656673,4 Z" id="Fill-1" fill="url(#linearGradient-1)"></path>
        <path d="M35.6281619,39.8664 C35.2732032,40.4891 34.3923797,41 33.6693156,41 L22.3316704,41 C21.6086063,41 20.7264681,40.4891 20.3728241,39.8664 L14.2662191,29.1323 C13.9112603,28.5096 13.9112603,27.4891 14.2662191,26.8664 L20.3728241,16.1323 C20.7264681,15.5096 21.6086063,15 22.3316704,15 L33.6693156,15 C34.3923797,15 35.2732032,15.5096 35.6281619,16.1323 L41.7347669,26.8664 C42.088411,27.4891 42.088411,28.5096 41.7347669,29.1323 L35.6281619,39.8664 Z M33.9935558,37.128 L38.7916026,28.871 C39.0694658,28.392 39.0694658,27.607 38.7916026,27.128 L33.9935558,18.871 C33.7146597,18.392 33.022584,18 32.4544622,18 L23.5463125,18 C22.9781907,18 22.2850821,18.392 22.0072189,18.871 L17.2091721,27.128 C16.930276,27.607 16.930276,28.392 17.2091721,28.871 L22.0072189,37.128 C22.2850821,37.607 22.9781907,38 23.5463125,38 L32.4544622,38 C33.022584,38 33.7146597,37.607 33.9935558,37.128 Z" id="Combined-Shape" fill="url(#linearGradient-2)" opacity="0.5"></path>
    </g>
</svg>